<?xml version="1.0" encoding="UTF-8" standalone="no"?>
<svg
   xmlns:dc="http://purl.org/dc/elements/1.1/"
   xmlns:cc="http://creativecommons.org/ns#"
   xmlns:rdf="http://www.w3.org/1999/02/22-rdf-syntax-ns#"
   xmlns:svg="http://www.w3.org/2000/svg"
   xmlns="http://www.w3.org/2000/svg"
   xmlns:sodipodi="http://sodipodi.sourceforge.net/DTD/sodipodi-0.dtd"
   xmlns:inkscape="http://www.inkscape.org/namespaces/inkscape"
   viewBox="0.0 0.0 348.0 348.0"
   fill="none"
   version="1.1"
   id="svg6"
   sodipodi:docname="Baby Ordered Keys.svg"
   inkscape:version="0.92.4 (5da689c313, 2019-01-14)">
  <metadata
     id="metadata12">
    <rdf:RDF>
      <cc:Work
         rdf:about="">
        <dc:format>image/svg+xml</dc:format>
        <dc:type
           rdf:resource="http://purl.org/dc/dcmitype/StillImage" />
        <dc:title></dc:title>
      </cc:Work>
    </rdf:RDF>
  </metadata>
  <defs
     id="defs10" />
  <sodipodi:namedview
     pagecolor="#ffffff"
     bordercolor="#666666"
     borderopacity="1"
     objecttolerance="10"
     gridtolerance="10"
     guidetolerance="10"
     inkscape:pageopacity="0"
     inkscape:pageshadow="2"
     inkscape:window-width="1920"
     inkscape:window-height="1057"
     id="namedview8"
     showgrid="false"
     inkscape:zoom="2.1422769"
     inkscape:cx="84.76362"
     inkscape:cy="219.00872"
     inkscape:window-x="-8"
     inkscape:window-y="-8"
     inkscape:window-maximized="1"
     inkscape:current-layer="svg6"
     inkscape:object-paths="true"
     inkscape:snap-object-midpoints="true"
     inkscape:snap-bbox="true"
     inkscape:snap-bbox-midpoints="true">
    <inkscape:grid
       type="xygrid"
       id="grid30" />
  </sodipodi:namedview>
  <path
     d="M5.079 5.776h336.913v337.67H5.08z"
     stroke-width="2"
     stroke="#000"
     id="path2" />
  <path
     d="M282.734 40.554c0-8.376 6.966-15.165 15.56-15.165 4.126 0 8.084 1.597 11.001 4.441 2.918 2.844 4.558 6.702 4.558 10.724 0 8.376-6.966 15.165-15.56 15.165-8.593 0-15.559-6.79-15.559-15.165z"
     stroke-width="2"
     stroke="#000"
     id="path4" />
  <rect
     style="fill:#000000;stroke:#000000;stroke-opacity:1"
     id="rect27"
     width="197.59323"
     height="42.762714"
     x="41.288136"
     y="36.12711" />
  <rect
     style="fill:#ffffff;fill-opacity:1;stroke:#000000;stroke-width:1.50005484;stroke-opacity:1"
     id="rect28"
     width="99.541183"
     height="201.27966"
     x="16.957628"
     y="112.06779" />
  <rect
     style="fill:#ffffff;fill-opacity:1;stroke:#000000;stroke-width:1.44757378;stroke-opacity:1"
     id="rect28-9"
     width="98.837273"
     height="188.77698"
     x="127.53523"
     y="111.68353" />
  <rect
     style="fill:#ffffff;fill-opacity:1;stroke:#000000;stroke-width:1.37406242;stroke-opacity:1"
     id="rect28-1"
     width="97.401108"
     height="172.59863"
     x="235.15833"
     y="111.66253" />
  <g
     aria-label="#"
     style="font-style:normal;font-weight:normal;font-size:40px;line-height:1.25;font-family:sans-serif;letter-spacing:0px;word-spacing:0px;fill:#000000;fill-opacity:1;stroke:none"
     id="text73">
    <path
       d="m 70.409859,209.46542 h -5.683594 l -1.640625,6.52344 h 5.722656 z m -2.929688,-11.11328 -2.03125,8.10547 h 5.703125 l 2.050781,-8.10547 h 3.125 l -2.011718,8.10547 h 6.09375 v 3.00781 H 73.55439 l -1.601563,6.52344 h 6.210938 v 2.98828 h -6.972656 l -2.03125,8.08594 h -3.125 l 2.011718,-8.08594 h -5.722656 l -2.011719,8.08594 h -3.144531 l 2.03125,-8.08594 h -6.152344 v -2.98828 h 6.875 l 1.640625,-6.52344 H 55.27314 v -3.00781 h 7.050781 l 1.992188,-8.10547 z"
       style=""
       id="path824" />
  </g>
  <g
     aria-label="#"
     style="font-style:normal;font-weight:normal;font-size:40px;line-height:1.25;font-family:sans-serif;letter-spacing:0px;word-spacing:0px;fill:#000000;fill-opacity:1;stroke:none"
     id="text73-3">
    <path
       d="m 180.63551,202.82983 h -5.68359 l -1.64063,6.52344 h 5.72266 z m -2.92968,-11.11328 -2.03125,8.10547 h 5.70312 l 2.05078,-8.10547 h 3.125 l -2.01172,8.10547 h 6.09375 v 3.00781 h -6.85547 l -1.60156,6.52344 h 6.21094 v 2.98828 h -6.97266 l -2.03125,8.08594 h -3.125 l 2.01172,-8.08594 h -5.72265 l -2.01172,8.08594 h -3.14453 l 2.03125,-8.08594 h -6.15235 v -2.98828 h 6.875 l 1.64063,-6.52344 h -6.28907 v -3.00781 h 7.05079 l 1.99218,-8.10547 z"
       style=""
       id="path830" />
  </g>
  <g
     aria-label="#"
     style="font-style:normal;font-weight:normal;font-size:40px;line-height:1.25;font-family:sans-serif;letter-spacing:0px;word-spacing:0px;fill:#000000;fill-opacity:1;stroke:none"
     id="text73-0">
    <path
       d="m 287.54053,194.71967 h -5.6836 l -1.64062,6.52343 h 5.72265 z m -2.92969,-11.11329 -2.03125,8.10547 h 5.70312 l 2.05079,-8.10547 h 3.125 l -2.01172,8.10547 h 6.09375 v 3.00782 h -6.85547 l -1.60156,6.52343 h 6.21093 v 2.98828 h -6.97265 l -2.03125,8.08594 h -3.125 l 2.01172,-8.08594 h -5.72266 l -2.01172,8.08594 h -3.14453 l 2.03125,-8.08594 h -6.15234 v -2.98828 h 6.875 l 1.64062,-6.52343 h -6.28906 v -3.00782 h 7.05078 l 1.99219,-8.10547 z"
       style=""
       id="path827" />
  </g>
</svg>
